<?xml version="1.0" standalone="no"?>
<!DOCTYPE svg PUBLIC "-//W3C//DTD SVG 20010904//EN"
 "http://www.w3.org/TR/2001/REC-SVG-20010904/DTD/svg10.dtd">
<svg version="1.0" xmlns="http://www.w3.org/2000/svg"
 width="2135.000000pt" height="2135.000000pt" viewBox="0 0 2135.000000 2135.000000"
 preserveAspectRatio="xMidYMid meet">
<metadata>
Created by potrace 1.11, written by Peter Selinger 2001-2013
</metadata>
<g transform="translate(0.000000,2135.000000) scale(0.100000,-0.100000)"
fill="#000000" stroke="none">
<path d="M12457 21344 c-1 -1 -62 -5 -135 -9 -73 -3 -142 -8 -155 -10 -12 -2
-49 -6 -82 -10 -33 -3 -80 -8 -105 -11 -50 -6 -311 -50 -350 -59 -14 -4 -38
-8 -55 -11 -164 -28 -627 -172 -800 -248 -19 -9 -50 -22 -67 -30 -776 -331
-1468 -877 -1980 -1561 -110 -147 -288 -414 -288 -431 0 -2 -11 -21 -23 -42
-157 -248 -348 -691 -451 -1042 -50 -172 -112 -433 -130 -555 -9 -63 -18 -121
-22 -139 -2 -11 -6 -44 -9 -75 -3 -31 -7 -65 -9 -76 -3 -18 -8 -62 -22 -235
-7 -83 -7 -9185 0 -9260 8 -84 16 -149 21 -180 2 -14 7 -45 10 -70 3 -25 8
-52 10 -60 2 -8 7 -29 10 -47 16 -97 73 -291 127 -438 267 -720 854 -1340
1548 -1639 36 -15 79 -34 95 -41 181 -78 548 -171 758 -191 148 -14 457 -19
542 -9 22 2 66 7 97 9 351 30 843 191 1138 371 378 232 636 461 877 780 235
311 442 757 509 1100 2 11 10 54 19 95 20 103 23 121 31 198 3 37 9 76 12 87
10 33 11 5355 1 5420 -19 129 -40 199 -95 311 -144 294 -442 501 -768 533
-230 22 -462 -36 -644 -161 -139 -95 -257 -231 -323 -368 -43 -90 -57 -127
-79 -220 l-23 -95 -2 -2620 c-1 -1441 -5 -2640 -9 -2665 -13 -87 -17 -105 -42
-178 -106 -316 -392 -576 -704 -638 -84 -17 -123 -22 -202 -23 -83 -1 -130 4
-232 24 -254 51 -516 257 -641 505 -54 106 -79 188 -102 330 -6 42 -5 8929 1
9020 4 47 8 101 11 120 2 19 7 59 11 89 6 56 7 62 24 146 5 28 12 65 15 84 3
19 8 37 10 41 2 4 7 21 10 38 3 17 21 84 40 148 166 547 505 1047 955 1409
102 82 280 209 320 228 8 4 47 26 85 48 88 51 249 128 340 163 39 15 79 31 90
36 46 20 267 84 334 97 14 2 27 6 31 8 10 6 239 43 315 51 39 4 84 8 100 10
44 5 340 5 410 0 68 -5 165 -15 210 -23 17 -2 41 -6 55 -8 48 -7 96 -16 160
-31 36 -9 76 -18 90 -20 34 -6 312 -95 325 -104 6 -3 33 -15 60 -25 49 -18
261 -119 320 -153 328 -186 660 -471 865 -742 19 -25 37 -47 40 -50 12 -10 99
-138 148 -217 52 -83 161 -289 199 -378 57 -131 150 -415 167 -512 2 -15 9
-53 16 -83 6 -30 12 -66 14 -80 3 -14 8 -45 12 -70 8 -53 8 -53 19 -195 11
-136 11 -9987 1 -10178 -4 -77 -9 -146 -11 -155 -1 -10 -6 -53 -10 -96 -4 -43
-9 -88 -11 -100 -2 -12 -7 -39 -9 -61 -12 -91 -18 -126 -41 -245 -14 -69 -27
-133 -29 -143 -3 -9 -7 -25 -9 -35 -59 -252 -168 -585 -262 -797 -10 -22 -18
-42 -19 -45 -20 -67 -204 -417 -308 -585 -270 -438 -664 -894 -1022 -1182 -33
-26 -66 -54 -74 -62 -8 -7 -49 -39 -90 -70 -42 -31 -78 -59 -81 -62 -13 -15
-272 -186 -386 -254 -478 -287 -1071 -512 -1579 -601 -42 -7 -134 -23 -170
-28 -46 -7 -183 -25 -245 -31 -30 -3 -77 -8 -105 -11 -79 -9 -632 -11 -720 -3
-187 18 -211 20 -235 24 -14 2 -47 6 -75 10 -95 11 -368 61 -447 81 -10 2 -26
6 -35 8 -10 2 -31 7 -48 11 -426 100 -1033 358 -1378 586 -32 22 -60 39 -63
39 -7 0 -167 112 -279 196 -523 390 -976 901 -1300 1464 -76 131 -196 369
-243 480 -13 30 -28 64 -32 75 -62 141 -164 444 -208 615 -53 202 -99 435
-117 585 -3 28 -10 84 -15 125 -8 67 -12 114 -25 295 -2 28 -4 2298 -5 5045 0
3294 -4 5012 -11 5045 -15 76 -30 138 -39 160 -57 147 -118 248 -208 345 -147
159 -322 257 -537 301 -78 16 -274 16 -350 -1 -33 -7 -67 -14 -75 -15 -8 -2
-16 -4 -17 -5 -2 -2 -6 -3 -10 -4 -32 -7 -99 -34 -158 -63 -148 -74 -276 -185
-370 -323 -68 -99 -134 -257 -150 -360 -4 -25 -9 -54 -12 -65 -6 -30 -5
-10000 1 -10140 3 -66 8 -142 11 -170 2 -27 7 -84 10 -125 3 -41 7 -84 9 -96
2 -11 7 -54 11 -95 3 -41 8 -81 11 -89 2 -9 6 -34 9 -55 5 -49 12 -97 21 -150
4 -22 8 -50 10 -62 1 -12 5 -34 8 -50 11 -49 16 -77 22 -113 6 -39 17 -91 64
-285 234 -982 709 -1926 1364 -2715 39 -47 73 -87 76 -90 3 -3 39 -43 80 -90
114 -130 295 -315 474 -485 107 -102 445 -382 536 -445 19 -13 40 -29 46 -35
36 -35 495 -340 549 -366 11 -5 36 -19 55 -31 383 -236 1063 -528 1520 -653
14 -3 66 -17 115 -31 50 -14 97 -26 105 -28 280 -69 484 -108 720 -141 25 -3
56 -8 70 -10 14 -2 52 -6 85 -10 33 -3 71 -8 85 -10 14 -2 59 -6 100 -9 41 -3
107 -8 145 -11 181 -14 611 -20 780 -10 131 8 250 16 290 20 22 2 67 7 100 10
148 14 346 42 505 71 47 9 96 18 110 20 461 85 1084 286 1515 490 44 21 82 38
85 39 12 2 296 149 331 171 21 13 41 24 44 24 2 0 70 38 150 85 189 111 473
299 600 398 9 7 76 58 158 120 16 12 34 27 40 32 7 6 55 46 107 89 222 183
560 510 730 706 40 47 76 87 79 90 5 4 75 88 108 130 6 8 28 35 49 60 20 25
55 70 77 100 23 30 45 60 50 65 30 36 118 161 201 285 53 80 100 150 104 155
22 29 189 316 244 420 74 138 163 320 220 450 22 50 48 108 58 130 61 137 171
445 235 656 77 254 172 658 200 854 3 22 7 47 10 55 2 8 11 71 19 140 23 188
25 205 31 273 3 34 7 80 9 102 3 22 8 99 12 170 10 166 10 10222 1 10375 -4
63 -10 131 -12 150 -2 19 -6 62 -10 95 -3 33 -8 71 -10 85 -2 14 -9 61 -15
105 -7 44 -23 136 -37 205 -14 69 -26 132 -28 141 -19 95 -135 490 -164 554
-5 11 -32 81 -61 155 -82 213 -196 442 -357 720 -27 47 -222 336 -247 367 -8
10 -52 66 -98 125 -205 260 -498 557 -743 753 -27 22 -52 43 -55 46 -26 31
-361 262 -520 359 -63 38 -340 190 -347 190 -3 0 -42 18 -86 39 -187 90 -386
167 -649 250 -95 30 -366 97 -473 116 -49 10 -97 19 -106 20 -23 5 -75 12
-134 20 -27 4 -61 9 -75 11 -14 2 -54 6 -90 9 -36 3 -74 8 -85 10 -52 11 -588
27 -598 19z"/>
</g>
</svg>
