<?xml version="1.0" standalone="no"?>
<!DOCTYPE svg PUBLIC "-//W3C//DTD SVG 20010904//EN"
 "http://www.w3.org/TR/2001/REC-SVG-20010904/DTD/svg10.dtd">
<svg version="1.0" xmlns="http://www.w3.org/2000/svg"
 width="700.000000pt" height="700.000000pt" viewBox="0 0 700.000000 700.000000"
 preserveAspectRatio="xMidYMid meet">
<metadata>
Created by potrace 1.11, written by Peter Selinger 2001-2013
</metadata>
<g transform="translate(0.000000,700.000000) scale(0.100000,-0.100000)"
fill="#000000" stroke="none">
<path d="M3250 6980 c-514 -77 -962 -370 -1237 -810 -107 -172 -202 -416 -229
-587 -3 -21 -11 -58 -17 -83 -14 -56 -21 -4284 -8 -4345 5 -22 11 -56 14 -75
13 -91 54 -221 105 -328 128 -268 341 -484 606 -614 178 -89 345 -129 553
-133 459 -9 872 209 1127 597 109 166 188 395 204 592 3 44 6 1001 5 2126 l0
2045 -25 95 c-46 170 -112 286 -237 411 -106 106 -215 171 -355 214 -415 125
-850 -64 -1040 -453 -49 -99 -64 -149 -85 -282 -3 -25 -6 -805 -6 -1735 1
-1600 2 -1692 19 -1733 32 -75 120 -132 204 -132 94 0 190 81 208 175 4 22 8
796 8 1720 1 1621 2 1682 20 1735 92 268 393 384 635 247 52 -29 142 -125 168
-177 52 -104 50 -6 50 -2176 0 -1220 -4 -2048 -9 -2086 -71 -469 -506 -801
-974 -743 -301 38 -575 244 -693 521 -35 83 -50 136 -66 230 -8 51 -8 4100 0
4184 50 499 385 928 860 1103 288 105 640 101 925 -12 264 -105 496 -302 643
-548 54 -89 101 -195 131 -293 24 -82 28 -97 41 -184 4 -21 9 -48 11 -60 2
-11 5 -791 5 -1733 0 -1233 4 -1722 12 -1748 16 -53 79 -120 132 -141 101 -38
218 9 273 111 16 28 17 168 17 1765 0 954 -3 1767 -7 1807 -25 237 -120 513
-251 723 -135 215 -352 434 -554 559 -190 118 -475 227 -644 245 -24 3 -55 8
-69 11 -61 15 -357 12 -470 -5z"/>
</g>
</svg>
