<?xml version="1.0" encoding="utf-8"?>
<!-- Generator: Adobe Illustrator 22.1.0, SVG Export Plug-In . SVG Version: 6.00 Build 0)  -->
<svg version="1.1" id="Capa_1" xmlns="http://www.w3.org/2000/svg" xmlns:xlink="http://www.w3.org/1999/xlink" x="0px" y="0px"
	 viewBox="0 0 512 512" style="enable-background:new 0 0 512 512;" xml:space="preserve">
<g>
	<g id="Clip">
		<g>
			<path d="M176,0C105.4,0,48,57.4,48,128v288c0,52.9,43.1,96,96,96s96-43.1,96-96V128c0-35.3-28.7-64-64-64s-64,28.7-64,64v240
				c0,8.8,7.2,16,16,16c8.8,0,16-7.2,16-16V128c0-17.7,14.4-32,32-32c17.7,0,32,14.3,32,32v288c0,35.3-28.7,64-64,64
				c-35.3,0-64-28.7-64-64V128c0-52.9,43.1-96,96-96s96,43.1,96,96v240c0,8.8,7.2,16,16,16s16-7.2,16-16V128C304,57.4,246.6,0,176,0
				z"/>
		</g>
	</g>
</g>
</svg>
